<?xml version="1.0" encoding="UTF-8" standalone="no"?>
<svg
   xmlns:dc="http://purl.org/dc/elements/1.1/"
   xmlns:cc="http://creativecommons.org/ns#"
   xmlns:rdf="http://www.w3.org/1999/02/22-rdf-syntax-ns#"
   xmlns:svg="http://www.w3.org/2000/svg"
   xmlns="http://www.w3.org/2000/svg"
   xmlns:sodipodi="http://sodipodi.sourceforge.net/DTD/sodipodi-0.dtd"
   xmlns:inkscape="http://www.inkscape.org/namespaces/inkscape"
   height="256.000000pt"
   preserveAspectRatio="xMidYMid meet"
   version="1.0"
   viewBox="0 0 256.000000 256.000000"
   width="256.000000pt"
   id="svg2"
   inkscape:version="0.91 r13725"
   sodipodi:docname="Pencil.svg">
  <metadata
     id="metadata18">
    <rdf:RDF>
      <cc:Work
         rdf:about="">
        <dc:format>image/svg+xml</dc:format>
        <dc:type
           rdf:resource="http://purl.org/dc/dcmitype/StillImage" />
      </cc:Work>
    </rdf:RDF>
  </metadata>
  <defs
     id="defs16" />
  <sodipodi:namedview
     pagecolor="#ffffff"
     bordercolor="#666666"
     borderopacity="1"
     objecttolerance="10"
     gridtolerance="10"
     guidetolerance="10"
     inkscape:pageopacity="0"
     inkscape:pageshadow="2"
     inkscape:window-width="1095"
     inkscape:window-height="771"
     id="namedview14"
     showgrid="false"
     inkscape:zoom="1"
     inkscape:cx="160"
     inkscape:cy="160"
     inkscape:window-x="0"
     inkscape:window-y="0"
     inkscape:window-maximized="0"
     inkscape:current-layer="svg2" />
  <g
     fill="#000000"
     stroke="none"
     transform="translate(0.000000,256.000000) scale(0.100000,-0.100000)"
     id="g4">
    <path
       d="M2048 2470 c-36 -11 -504 -469 -1182 -1156 -502 -508 -536 -545 -536 -578 0 -44 22 -66 66 -66 33 0 81 46 818 788 912 918 948 955 944 991 -3 23 -8 26 -43 28 -22 1 -52 -2 -67 -7z"
       id="path6" />
    <path
       d="M2267 2409 c-47 -25 -555 -519 -1243 -1211 -495 -496 -522 -525 -533 -572 -15 -62 -1 -110 39 -131 35 -18 85 -19 122 -2 29 13 1574 1566 1677 1686 106 123 119 179 55 230 -33 26 -68 26 -117 0z"
       id="path8" />
    <path
       d="M1549 1303 c-770 -768 -870 -872 -875 -904 -5 -30 -2 -41 16 -59 53 -53 24 -79 879 782 433 436 812 821 843 855 60 66 79 114 62 162 -24 67 -2 87 -925 -836z"
       id="path10" />
    <path
       d="M172 423 c-37 -89 -84 -248 -85 -293 l-2 -45 55 2 c57 2 204 41 278 73 42 19 43 21 37 52 -19 86 -102 186 -193 232 -28 14 -55 26 -60 26 -5 0 -19 -21 -30 -47z"
       id="path12" />
  </g>
  <path
     style="fill:#ff2a2a"
     d="m 68.411912,258.52249 c -6.795324,-2.06544 -9.128798,-11.19722 -5.074065,-19.85677 1.634052,-3.48978 23.608914,-26.02597 93.250003,-95.63197 C 206.69953,92.947315 255.35,44.843248 264.7,36.135826 c 22.39593,-20.856775 26.93748,-22.83837 34.48813,-15.048075 2.93636,3.029557 3.23098,3.841997 2.73478,7.541412 -0.83606,6.233352 -6.09289,13.261586 -24.13646,32.26981 C 255.37658,84.506921 108.42771,232.34625 92.950827,246.85463 81.581819,257.5122 80.00499,258.65186 76.055758,259.06559 c -2.395667,0.25097 -5.835398,0.007 -7.643846,-0.5431 z"
     id="path3346"
     inkscape:connector-curvature="0"
     transform="scale(0.8,0.8)" />
  <path
     style="fill:#ff2a2a"
     d="M 86.170192,276.55814 C 83.202826,272.39086 84.016678,270.03791 91.428736,261.355 99.48672,251.91542 238.00555,112.77626 271.74913,80.227085 c 14.32702,-13.819897 27.98849,-26.459722 30.35882,-28.088501 4.16974,-2.865242 4.35488,-2.89963 5.70087,-1.058871 2.39276,3.272284 1.71456,9.618801 -1.58361,14.819488 C 303.22204,70.634703 186.82666,189.0699 131.58496,243.6 c -28.50044,28.13331 -37.566427,36 -41.48831,36 -0.968254,0 -2.73516,-1.36884 -3.926458,-3.04186 z"
     id="path3348"
     inkscape:connector-curvature="0"
     transform="scale(0.8,0.8)" />
  <path
     style="fill:#ff2a2a"
     d="m 43.854988,233.77126 c -2.843768,-3.14233 -2.050172,-7.49172 2.39244,-13.11205 C 56.390674,207.82705 211.68851,51.838686 242.07807,23.957827 253.80503,13.198941 255.99413,11.603458 259.81526,11.030445 271.54137,9.2720063 272.07008,13.076041 261.74157,24.890043 252.52362,35.43375 88.343635,201.39661 70.112553,218.6 c -7.285695,6.875 -14.608957,13.5125 -16.273915,14.75 -3.664134,2.72341 -7.744423,2.89558 -9.98365,0.42126 z"
     id="path3350"
     inkscape:connector-curvature="0"
     transform="scale(0.8,0.8)" />
  <path
     style="fill:#501616"
     d="m 11.202522,305.35 c 0.0048,-6.21373 9.001081,-36.05417 12.461975,-41.33616 1.473646,-2.24907 1.631225,-2.27179 5.254824,-0.75776 11.844513,4.94896 23.360244,17.31242 26.813794,28.78769 1.069807,3.5547 1.083618,4.62942 0.0703,5.4704 -4.181991,3.47075 -31.548526,11.08227 -39.853415,11.08453 -4.69309,0.001 -4.74997,-0.0376 -4.747478,-3.2487 z"
     id="path3352"
     inkscape:connector-curvature="0"
     transform="scale(0.8,0.8)" />
</svg>
